<?xml version="1.0" encoding="UTF-8"?>
<svg width="774px" height="207px" viewBox="0 0 774 207" version="1.1" xmlns="http://www.w3.org/2000/svg" xmlns:xlink="http://www.w3.org/1999/xlink">
    <title>Artboard</title>
    <g id="Artboard" stroke="none" stroke-width="1" fill="none" fill-rule="evenodd">
        <g id="Group" transform="translate(40.500000, 66.000000)" fill="#FFDAAD" fill-rule="nonzero">
            <path d="M69.859375,38 C74.7552083,38 77.5286458,35.2265625 78.1796875,29.6796875 L78.1796875,29.6796875 L74,29.6796875 C74,32.4401042 72.6197917,33.8203125 69.859375,33.8203125 L69.859375,33.8203125 L65.6796875,33.8203125 C64.5208333,33.8203125 63.5345052,33.4101562 62.7207031,32.5898438 C61.906901,31.7695312 61.5,30.7994792 61.5,29.6796875 L61.5,29.6796875 L61.5,25.5 L78.1796875,25.5 L78.1796875,17.1796875 C78.1796875,14.9010417 77.3626302,12.938151 75.7285156,11.2910156 C74.094401,9.64388021 72.1380208,8.8203125 69.859375,8.8203125 L69.859375,8.8203125 L61.5,8.8203125 C59.234375,8.8203125 57.28125,9.63736979 55.640625,11.2714844 C54,12.905599 53.1796875,14.875 53.1796875,17.1796875 L53.1796875,17.1796875 L53.1796875,29.6796875 C53.1796875,31.9583333 53.9967448,33.9147135 55.6308594,35.5488281 C57.264974,37.1829427 59.2213542,38 61.5,38 L61.5,38 L69.859375,38 Z M69.859375,21.3203125 L61.5,21.3203125 L61.5,17.1796875 C61.5,16.0338542 61.9101562,15.0507812 62.7304688,14.2304688 C63.5507812,13.4101562 64.5338542,13 65.6796875,13 C66.8125,13 67.7923177,13.4101562 68.6191406,14.2304688 C69.4459635,15.0507812 69.859375,16.0338542 69.859375,17.1796875 L69.859375,17.1796875 L69.859375,21.3203125 Z M103.166667,38 C105.627604,38 107.020833,36.6067708 107.346354,33.8203125 L107.346354,33.8203125 L107.346354,38 L115.666667,38 L115.666667,17.1796875 C115.666667,14.9010417 114.849609,12.938151 113.215495,11.2910156 C111.58138,9.64388021 109.625,8.8203125 107.346354,8.8203125 L107.346354,8.8203125 L98.9869792,8.8203125 C94.078125,8.8203125 91.3046875,11.6067708 90.6666667,17.1796875 L90.6666667,17.1796875 L94.8463542,17.1796875 C95.1458333,14.3932292 96.5260417,13 98.9869792,13 L98.9869792,13 L103.166667,13 C104.299479,13 105.279297,13.4101562 106.10612,14.2304688 C106.932943,15.0507812 107.346354,16.0338542 107.346354,17.1796875 L107.346354,17.1796875 L107.346354,21.3203125 L98.9869792,21.3203125 C96.7213542,21.3203125 94.7682292,22.1373698 93.1276042,23.7714844 C91.4869792,25.405599 90.6666667,27.3619792 90.6666667,29.640625 L90.6666667,29.640625 L90.6666667,29.6796875 C90.6666667,31.9583333 91.483724,33.9147135 93.1178385,35.5488281 C94.7519531,37.1829427 96.7083333,38 98.9869792,38 L98.9869792,38 L103.166667,38 Z M103.166667,33.8203125 C102.007812,33.8203125 101.021484,33.4101562 100.207682,32.5898438 C99.3938802,31.7695312 98.9869792,30.7994792 98.9869792,29.6796875 L98.9869792,29.6796875 L98.9869792,29.640625 C98.9869792,28.5078125 99.3971354,27.5345052 100.217448,26.7207031 C101.03776,25.906901 102.020833,25.5 103.166667,25.5 L103.166667,25.5 L107.346354,25.5 L107.346354,29.6796875 C107.346354,30.7994792 106.939453,31.7695312 106.125651,32.5898438 C105.311849,33.4101562 104.325521,33.8203125 103.166667,33.8203125 Z M136.473958,38 L136.473958,21.3203125 C136.473958,20.1875 136.884115,19.2141927 137.704427,18.4003906 C138.52474,17.5865885 139.507812,17.1796875 140.653646,17.1796875 L140.653646,17.1796875 L148.973958,17.1796875 L148.973958,8.8203125 L144.833333,8.8203125 C142.372396,8.8203125 140.445312,9.51692708 139.052083,10.9101562 C137.658854,12.3033854 136.799479,14.3932292 136.473958,17.1796875 L136.473958,17.1796875 L136.473958,8.8203125 L128.153646,8.8203125 L128.153646,38 L136.473958,38 Z M165.640625,38 L165.640625,17.1796875 C165.640625,16.0338542 166.050781,15.0507812 166.871094,14.2304688 C167.691406,13.4101562 168.674479,13 169.820312,13 C170.953125,13 171.932943,13.4101562 172.759766,14.2304688 C173.586589,15.0507812 174,16.0338542 174,17.1796875 L174,17.1796875 L174,38 L182.320312,38 L182.320312,17.1796875 C182.320312,14.9010417 181.503255,12.938151 179.869141,11.2910156 C178.235026,9.64388021 176.278646,8.8203125 174,8.8203125 L174,8.8203125 L169.820312,8.8203125 C168.596354,8.8203125 167.636068,9.16536458 166.939453,9.85546875 C166.242839,10.5455729 165.809896,11.59375 165.640625,13 L165.640625,13 L165.640625,8.8203125 L157.320312,8.8203125 L157.320312,38 L165.640625,38 Z M203.127604,4.6796875 L203.127604,0.5 L194.807292,0.5 L194.807292,4.6796875 L203.127604,4.6796875 Z M203.127604,38 L203.127604,8.8203125 L194.807292,8.8203125 L194.807292,38 L203.127604,38 Z M223.973958,38 L223.973958,17.1796875 C223.973958,16.0338542 224.384115,15.0507812 225.204427,14.2304688 C226.02474,13.4101562 227.007812,13 228.153646,13 C229.286458,13 230.266276,13.4101562 231.093099,14.2304688 C231.919922,15.0507812 232.333333,16.0338542 232.333333,17.1796875 L232.333333,17.1796875 L232.333333,38 L240.653646,38 L240.653646,17.1796875 C240.653646,14.9010417 239.836589,12.938151 238.202474,11.2910156 C236.568359,9.64388021 234.611979,8.8203125 232.333333,8.8203125 L232.333333,8.8203125 L228.153646,8.8203125 C226.929687,8.8203125 225.969401,9.16536458 225.272786,9.85546875 C224.576172,10.5455729 224.143229,11.59375 223.973958,13 L223.973958,13 L223.973958,8.8203125 L215.653646,8.8203125 L215.653646,38 L223.973958,38 Z M269.820312,50.5 C272.072917,50.5 274.022786,49.6796875 275.669922,48.0390625 C277.317057,46.3984375 278.140625,44.4453125 278.140625,42.1796875 L278.140625,42.1796875 L278.140625,8.8203125 L261.460938,8.8203125 C259.195312,8.8203125 257.242188,9.63736979 255.601562,11.2714844 C253.960938,12.905599 253.140625,14.875 253.140625,17.1796875 L253.140625,17.1796875 L253.140625,29.6796875 C253.140625,31.9583333 253.957682,33.9147135 255.591797,35.5488281 C257.225911,37.1829427 259.182292,38 261.460938,38 L261.460938,38 L265.640625,38 C268.101562,38 269.494792,36.6067708 269.820312,33.8203125 L269.820312,33.8203125 L269.820312,42.1796875 C269.820312,43.3125 269.406901,44.2858073 268.580078,45.0996094 C267.753255,45.9134115 266.773438,46.3203125 265.640625,46.3203125 L265.640625,46.3203125 L261.460938,46.3203125 C258.895833,46.3203125 257.515625,44.9401042 257.320312,42.1796875 L257.320312,42.1796875 L253.140625,42.1796875 C253.778646,47.7265625 256.552083,50.5 261.460938,50.5 L261.460938,50.5 L269.820312,50.5 Z M265.640625,33.8203125 C264.481771,33.8203125 263.495443,33.4101562 262.681641,32.5898438 C261.867839,31.7695312 261.460938,30.7994792 261.460938,29.6796875 L261.460938,29.6796875 L261.460938,17.1796875 C261.460938,16.0338542 261.871094,15.0507812 262.691406,14.2304688 C263.511719,13.4101562 264.494792,13 265.640625,13 L265.640625,13 L269.820312,13 L269.820312,29.6796875 C269.820312,30.7994792 269.413411,31.7695312 268.599609,32.5898438 C267.785807,33.4101562 266.799479,33.8203125 265.640625,33.8203125 Z M319.501302,38 L319.501302,13 L323.68099,13 L323.68099,8.8203125 L319.501302,8.8203125 L319.501302,8.44921875 C319.501302,7.43359375 319.872396,6.55143229 320.614583,5.80273438 C321.356771,5.05403646 322.248698,4.6796875 323.290365,4.6796875 L323.290365,4.6796875 L327.821615,4.6796875 L327.821615,0.5 L319.130208,0.5 C316.955729,0.5 315.08724,1.28125 313.52474,2.84375 C311.96224,4.40625 311.18099,6.27473958 311.18099,8.44921875 L311.18099,8.44921875 L311.18099,8.8203125 L307.001302,8.8203125 L307.001302,13 L311.18099,13 L311.18099,38 L319.501302,38 Z M352.847656,38 C355.126302,38 357.082682,37.1764323 358.716797,35.5292969 C360.350911,33.8821615 361.167969,31.9322917 361.167969,29.6796875 L361.167969,29.6796875 L361.167969,17.1796875 C361.167969,14.9010417 360.350911,12.938151 358.716797,11.2910156 C357.082682,9.64388021 355.126302,8.8203125 352.847656,8.8203125 L352.847656,8.8203125 L344.488281,8.8203125 C342.222656,8.8203125 340.269531,9.63736979 338.628906,11.2714844 C336.988281,12.905599 336.167969,14.875 336.167969,17.1796875 L336.167969,17.1796875 L336.167969,29.6796875 C336.167969,31.9583333 336.985026,33.9147135 338.619141,35.5488281 C340.253255,37.1829427 342.209635,38 344.488281,38 L344.488281,38 L352.847656,38 Z M348.667969,33.8203125 C347.509115,33.8203125 346.522786,33.4101562 345.708984,32.5898438 C344.895182,31.7695312 344.488281,30.7994792 344.488281,29.6796875 L344.488281,29.6796875 L344.488281,17.1796875 C344.488281,16.0338542 344.898437,15.0507812 345.71875,14.2304688 C346.539062,13.4101562 347.522135,13 348.667969,13 C349.800781,13 350.780599,13.4101562 351.607422,14.2304688 C352.434245,15.0507812 352.847656,16.0338542 352.847656,17.1796875 L352.847656,17.1796875 L352.847656,29.6796875 C352.847656,30.7994792 352.440755,31.7695312 351.626953,32.5898438 C350.813151,33.4101562 349.826823,33.8203125 348.667969,33.8203125 Z M381.97526,38 L381.97526,21.3203125 C381.97526,20.1875 382.385417,19.2141927 383.205729,18.4003906 C384.026042,17.5865885 385.009115,17.1796875 386.154948,17.1796875 L386.154948,17.1796875 L394.47526,17.1796875 L394.47526,8.8203125 L390.334635,8.8203125 C387.873698,8.8203125 385.946615,9.51692708 384.553385,10.9101562 C383.160156,12.3033854 382.300781,14.3932292 381.97526,17.1796875 L381.97526,17.1796875 L381.97526,8.8203125 L373.654948,8.8203125 L373.654948,38 L381.97526,38 Z M427.515625,4.6796875 L427.515625,0.5 L419.195312,0.5 L419.195312,4.6796875 L427.515625,4.6796875 Z M427.515625,38 L427.515625,8.8203125 L419.195312,8.8203125 L419.195312,38 L427.515625,38 Z M448.361979,38 L448.361979,17.1796875 C448.361979,16.0338542 448.772135,15.0507812 449.592448,14.2304688 C450.41276,13.4101562 451.395833,13 452.541667,13 C453.674479,13 454.654297,13.4101562 455.48112,14.2304688 C456.307943,15.0507812 456.721354,16.0338542 456.721354,17.1796875 L456.721354,17.1796875 L456.721354,38 L465.041667,38 L465.041667,17.1796875 C465.041667,14.9010417 464.224609,12.938151 462.590495,11.2910156 C460.95638,9.64388021 459,8.8203125 456.721354,8.8203125 L456.721354,8.8203125 L452.541667,8.8203125 C451.317708,8.8203125 450.357422,9.16536458 449.660807,9.85546875 C448.964193,10.5455729 448.53125,11.59375 448.361979,13 L448.361979,13 L448.361979,8.8203125 L440.041667,8.8203125 L440.041667,38 L448.361979,38 Z M494.208333,38 L494.208333,33.8203125 L493.817708,33.8203125 C493.0625,33.8203125 492.242188,33.4654948 491.356771,32.7558594 C490.471354,32.046224 490.028646,31.0208333 490.028646,29.6796875 L490.028646,29.6796875 L490.028646,13 L494.208333,13 L494.208333,8.8203125 L490.028646,8.8203125 L490.028646,0.5 L481.708333,0.5 L481.708333,8.8203125 L477.528646,8.8203125 L477.528646,13 L481.708333,13 L481.708333,29.6796875 C481.708333,31.9583333 482.522135,33.9147135 484.14974,35.5488281 C485.777344,37.1829427 487.736979,38 490.028646,38 L490.028646,38 L494.208333,38 Z M515.015625,4.6796875 L515.015625,0.5 L506.695312,0.5 L506.695312,4.6796875 L515.015625,4.6796875 Z M515.015625,38 L515.015625,8.8203125 L506.695312,8.8203125 L506.695312,38 L515.015625,38 Z M535.861979,38 L535.861979,17.1796875 C535.861979,16.0338542 536.272135,15.0507812 537.092448,14.2304688 C537.91276,13.4101562 538.895833,13 540.041667,13 C541.174479,13 542.154297,13.4101562 542.98112,14.2304688 C543.807943,15.0507812 544.221354,16.0338542 544.221354,17.1796875 L544.221354,17.1796875 L544.221354,38 L552.541667,38 L552.541667,17.1796875 C552.541667,16.0338542 552.951823,15.0507812 553.772135,14.2304688 C554.592448,13.4101562 555.575521,13 556.721354,13 C557.841146,13 558.811198,13.4134115 559.63151,14.2402344 C560.451823,15.0670573 560.861979,16.046875 560.861979,17.1796875 L560.861979,17.1796875 L560.861979,38 L569.221354,38 L569.221354,17.1796875 C569.221354,14.875 568.397786,12.905599 566.750651,11.2714844 C565.103516,9.63736979 563.140625,8.8203125 560.861979,8.8203125 L560.861979,8.8203125 L556.721354,8.8203125 C555.289062,8.8203125 554.052083,9.06445312 553.010417,9.55273438 C551.96875,10.0410156 551.122396,10.7799479 550.471354,11.7695312 C549.130208,9.80338542 547.046875,8.8203125 544.221354,8.8203125 L544.221354,8.8203125 L540.041667,8.8203125 C538.817708,8.8203125 537.857422,9.16536458 537.160807,9.85546875 C536.464193,10.5455729 536.03125,11.59375 535.861979,13 L535.861979,13 L535.861979,8.8203125 L527.541667,8.8203125 L527.541667,38 L535.861979,38 Z M594.208333,38 C596.669271,38 598.0625,36.6067708 598.388021,33.8203125 L598.388021,33.8203125 L598.388021,38 L606.708333,38 L606.708333,17.1796875 C606.708333,14.9010417 605.891276,12.938151 604.257161,11.2910156 C602.623047,9.64388021 600.666667,8.8203125 598.388021,8.8203125 L598.388021,8.8203125 L590.028646,8.8203125 C585.119792,8.8203125 582.346354,11.6067708 581.708333,17.1796875 L581.708333,17.1796875 L585.888021,17.1796875 C586.1875,14.3932292 587.567708,13 590.028646,13 L590.028646,13 L594.208333,13 C595.341146,13 596.320964,13.4101562 597.147786,14.2304688 C597.974609,15.0507812 598.388021,16.0338542 598.388021,17.1796875 L598.388021,17.1796875 L598.388021,21.3203125 L590.028646,21.3203125 C587.763021,21.3203125 585.809896,22.1373698 584.169271,23.7714844 C582.528646,25.405599 581.708333,27.3619792 581.708333,29.640625 L581.708333,29.640625 L581.708333,29.6796875 C581.708333,31.9583333 582.525391,33.9147135 584.159505,35.5488281 C585.79362,37.1829427 587.75,38 590.028646,38 L590.028646,38 L594.208333,38 Z M594.208333,33.8203125 C593.049479,33.8203125 592.063151,33.4101562 591.249349,32.5898438 C590.435547,31.7695312 590.028646,30.7994792 590.028646,29.6796875 L590.028646,29.6796875 L590.028646,29.640625 C590.028646,28.5078125 590.438802,27.5345052 591.259115,26.7207031 C592.079427,25.906901 593.0625,25.5 594.208333,25.5 L594.208333,25.5 L598.388021,25.5 L598.388021,29.6796875 C598.388021,30.7994792 597.98112,31.7695312 597.167318,32.5898438 C596.353516,33.4101562 595.367188,33.8203125 594.208333,33.8203125 Z M631.695312,38 C636.903646,38 639.677083,35.2265625 640.015625,29.6796875 L640.015625,29.6796875 L635.875,29.6796875 C635.549479,32.4401042 634.15625,33.8203125 631.695312,33.8203125 C630.536458,33.8203125 629.55013,33.4101562 628.736328,32.5898438 C627.922526,31.7695312 627.515625,30.7994792 627.515625,29.6796875 L627.515625,29.6796875 L627.515625,17.1796875 C627.515625,16.0338542 627.925781,15.0507812 628.746094,14.2304688 C629.566406,13.4101562 630.549479,13 631.695312,13 C634.15625,13 635.549479,14.3932292 635.875,17.1796875 L635.875,17.1796875 L640.015625,17.1796875 C639.703125,11.6067708 636.929688,8.8203125 631.695312,8.8203125 L631.695312,8.8203125 L627.515625,8.8203125 C625.25,8.8203125 623.296875,9.63736979 621.65625,11.2714844 C620.015625,12.905599 619.195312,14.875 619.195312,17.1796875 L619.195312,17.1796875 L619.195312,29.6796875 C619.195312,31.9583333 620.01237,33.9147135 621.646484,35.5488281 C623.280599,37.1829427 625.236979,38 627.515625,38 L627.515625,38 L631.695312,38 Z" id="earningforintimac"></path>
            <path d="M679.375,75 C682.979167,75 686.098958,73.6875 688.734375,71.0625 C691.369792,68.4375 692.6875,65.3125 692.6875,61.6875 L692.6875,61.6875 L692.6875,8.3125 L679.375,8.3125 L679.375,41.6875 C679.375,43.4791667 678.723958,45.03125 677.421875,46.34375 C676.119792,47.65625 674.541667,48.3125 672.6875,48.3125 C670.833333,48.3125 669.255208,47.65625 667.953125,46.34375 C666.651042,45.03125 666,43.4791667 666,41.6875 L666,41.6875 L666,8.3125 L652.6875,8.3125 L652.6875,41.6875 C652.6875,45.3333333 653.994792,48.4635417 656.609375,51.078125 C659.223958,53.6927083 662.354167,55 666,55 L666,55 L672.6875,55 C676.625,55 678.854167,52.7708333 679.375,48.3125 L679.375,48.3125 L679.375,61.6875 C679.375,63.5 678.713542,65.0572917 677.390625,66.359375 C676.067708,67.6614583 674.5,68.3125 672.6875,68.3125 L672.6875,68.3125 L666,68.3125 C661.895833,68.3125 659.6875,66.1041667 659.375,61.6875 L659.375,61.6875 L652.6875,61.6875 C653.708333,70.5625 658.145833,75 666,75 L666,75 L679.375,75 Z" id="y"></path>
            <path d="M27.375,75 C30.9791667,75 34.0989583,73.6875 36.734375,71.0625 C39.3697917,68.4375 40.6875,65.3125 40.6875,61.6875 L40.6875,61.6875 L40.6875,8.3125 L27.375,8.3125 L27.375,41.6875 C27.375,43.4791667 26.7239583,45.03125 25.421875,46.34375 C24.1197917,47.65625 22.5416667,48.3125 20.6875,48.3125 C18.8333333,48.3125 17.2552083,47.65625 15.953125,46.34375 C14.6510417,45.03125 14,43.4791667 14,41.6875 L14,41.6875 L14,8.3125 L0.6875,8.3125 L0.6875,41.6875 C0.6875,45.3333333 1.99479167,48.4635417 4.609375,51.078125 C7.22395833,53.6927083 10.3541667,55 14,55 L14,55 L20.6875,55 C24.625,55 26.8541667,52.7708333 27.375,48.3125 L27.375,48.3125 L27.375,61.6875 C27.375,63.5 26.7135417,65.0572917 25.390625,66.359375 C24.0677083,67.6614583 22.5,68.3125 20.6875,68.3125 L20.6875,68.3125 L14,68.3125 C9.89583333,68.3125 7.6875,66.1041667 7.375,61.6875 L7.375,61.6875 L0.6875,61.6875 C1.70833333,70.5625 6.14583333,75 14,75 L14,75 L27.375,75 Z" id="y" transform="translate(20.687500, 41.656250) scale(-1, 1) translate(-20.687500, -41.656250) "></path>
        </g>
    </g>
</svg>