<?xml version="1.0" encoding="UTF-8"?>
<svg width="651px" height="650px" viewBox="0 0 651 650" version="1.1" xmlns="http://www.w3.org/2000/svg" xmlns:xlink="http://www.w3.org/1999/xlink">
    <title>Group</title>
    <g id="Page-1" stroke="none" stroke-width="1" fill="none" fill-rule="evenodd">
        <g id="Desktop" transform="translate(-184.000000, -588.000000)">
            <g id="Group" transform="translate(-82.000000, 523.500000)">
                <circle id="Oval" stroke="#C1BEAB" fill="#FFDE00" transform="translate(591.508276, 389.500000) rotate(77.000000) translate(-591.508276, -389.500000) " cx="591.508276" cy="389.5" r="324.17047"></circle>
                <path d="M437.265667,419.655201 L437.265667,343.755201 L448.815667,354.205201 L448.815667,403.705201 L450.465667,403.705201 L468.340667,419.655201 L517.290667,419.655201 L517.290667,217.255201 L499.415667,201.305201 L499.415667,199.655201 L445.515667,199.655201 L440.565667,215.055201 L425.440667,201.580201 L424.890667,199.655201 L368.790667,199.655201 L368.790667,403.705201 L370.715667,403.705201 L388.315667,419.655201 L437.265667,419.655201 Z M412.515667,396.830201 L375.665667,396.830201 L375.665667,206.530201 L419.665667,206.530201 L433.690667,257.680201 L450.465667,206.530201 L492.540667,206.530201 L492.540667,396.830201 L455.690667,396.830201 L455.690667,264.555201 L433.690667,322.030201 L412.515667,264.555201 L412.515667,396.830201 Z M625.984417,419.655201 C647.06775,419.655201 657.609417,409.113535 657.609417,388.030201 L657.609417,388.030201 L657.609417,248.605201 C657.609417,237.605201 654.676084,229.446868 648.809417,224.130201 L648.809417,224.130201 L647.984417,223.580201 L648.259417,223.580201 L635.059417,211.755201 C629.74275,203.505201 620.484417,199.380201 607.284417,199.380201 L607.284417,199.380201 L567.684417,199.380201 C546.051084,199.380201 535.234417,210.196868 535.234417,231.830201 L535.234417,231.830201 L535.234417,371.255201 C535.234417,386.105201 540.09275,395.730201 549.809417,400.130201 L549.809417,400.130201 L563.559417,412.505201 C568.876084,417.271868 576.484417,419.655201 586.384417,419.655201 L586.384417,419.655201 L625.984417,419.655201 Z M607.284417,396.830201 L567.684417,396.830201 C550.634417,396.830201 542.109417,388.305201 542.109417,371.255201 L542.109417,371.255201 L542.109417,231.830201 C542.109417,214.780201 550.634417,206.255201 567.684417,206.255201 L567.684417,206.255201 L607.284417,206.255201 C624.334417,206.255201 632.859417,214.780201 632.859417,231.830201 L632.859417,231.830201 L632.859417,371.255201 C632.859417,388.305201 624.334417,396.830201 607.284417,396.830201 L607.284417,396.830201 Z M590.234417,374.005201 C594.084417,374.005201 596.009417,372.171868 596.009417,368.505201 L596.009417,368.505201 L596.009417,234.855201 C596.009417,231.005201 594.084417,229.080201 590.234417,229.080201 L590.234417,229.080201 L584.734417,229.080201 C580.884417,229.080201 578.959417,231.005201 578.959417,234.855201 L578.959417,234.855201 L578.959417,368.505201 C578.959417,372.171868 580.884417,374.005201 584.734417,374.005201 L584.734417,374.005201 L590.234417,374.005201 Z M743.753167,419.655201 L743.753167,343.755201 L755.303167,354.205201 L755.303167,403.705201 L756.953167,403.705201 L774.828167,419.655201 L823.778167,419.655201 L823.778167,217.255201 L805.903167,201.305201 L805.903167,199.655201 L752.003167,199.655201 L747.053167,215.055201 L731.928167,201.580201 L731.378167,199.655201 L675.278167,199.655201 L675.278167,403.705201 L677.203167,403.705201 L694.803167,419.655201 L743.753167,419.655201 Z M719.003167,396.830201 L682.153167,396.830201 L682.153167,206.530201 L726.153167,206.530201 L740.178167,257.680201 L756.953167,206.530201 L799.028167,206.530201 L799.028167,396.830201 L762.178167,396.830201 L762.178167,264.555201 L740.178167,322.030201 L719.003167,264.555201 L719.003167,396.830201 Z" id="MOM" fill="#033047" fill-rule="nonzero"></path>
                <path d="M367.768792,569.264874 L367.768792,464.264874 L351.268792,464.264874 L351.268792,569.264874 L367.768792,569.264874 Z M431.018792,569.264874 L434.018792,548.714874 L452.768792,548.714874 L452.768792,548.414874 L455.768792,569.264874 L472.268792,569.264874 L455.168792,464.264874 L432.818792,464.264874 L415.718792,569.264874 L431.018792,569.264874 Z M450.818792,534.464874 L435.968792,534.464874 L443.168792,482.564874 L443.468792,482.564874 L450.818792,534.464874 Z M502.618792,569.264874 L502.618792,489.764874 L502.918792,489.764874 L514.918792,569.264874 L528.718792,569.264874 L540.718792,489.764874 L541.018792,489.764874 L541.018792,569.264874 L556.618792,569.264874 L556.618792,464.264874 L533.068792,464.264874 L522.568792,539.414874 L522.268792,539.414874 L511.768792,464.264874 L488.218792,464.264874 L488.218792,569.264874 L502.618792,569.264874 Z M630.368792,570.764874 C638.468792,570.764874 644.643792,568.464874 648.893792,563.864874 C653.143792,559.264874 655.268792,552.664874 655.268792,544.064874 C655.268792,537.464874 653.968792,531.714874 651.368792,526.814874 C648.768792,521.914874 644.018792,516.464874 637.118792,510.464874 C631.718792,505.764874 627.993792,501.764874 625.943792,498.464874 C623.893792,495.164874 622.868792,491.614874 622.868792,487.814874 C622.868792,481.114874 625.618792,477.764874 631.118792,477.764874 C633.818792,477.764874 635.868792,478.589874 637.268792,480.239874 C638.668792,481.889874 639.368792,484.514874 639.368792,488.114874 L639.368792,488.114874 L639.368792,493.514874 L654.968792,493.514874 L654.968792,489.164874 C654.968792,480.664874 652.943792,474.139874 648.893792,469.589874 C644.843792,465.039874 638.868792,462.764874 630.968792,462.764874 C622.968792,462.764874 616.868792,465.039874 612.668792,469.589874 C608.468792,474.139874 606.368792,480.564874 606.368792,488.864874 C606.368792,494.964874 607.718792,500.439874 610.418792,505.289874 C613.118792,510.139874 617.868792,515.564874 624.668792,521.564874 C630.068792,526.264874 633.768792,530.289874 635.768792,533.639874 C637.768792,536.989874 638.768792,540.864874 638.768792,545.264874 C638.768792,548.964874 638.043792,551.639874 636.593792,553.289874 C635.143792,554.939874 633.018792,555.764874 630.218792,555.764874 C624.518792,555.764874 621.668792,552.364874 621.668792,545.564874 L621.668792,545.564874 L621.668792,538.364874 L606.068792,538.364874 L606.068792,544.364874 C606.068792,552.864874 608.118792,559.389874 612.218792,563.939874 C616.318792,568.489874 622.368792,570.764874 630.368792,570.764874 Z M683.218792,569.264874 L686.218792,548.714874 L704.968792,548.714874 L704.968792,548.414874 L707.968792,569.264874 L724.468792,569.264874 L707.368792,464.264874 L685.018792,464.264874 L667.918792,569.264874 L683.218792,569.264874 Z M703.018792,534.464874 L688.168792,534.464874 L695.368792,482.564874 L695.668792,482.564874 L703.018792,534.464874 Z M756.918792,569.264874 L756.918792,523.514874 L778.218792,523.514874 L778.218792,508.514874 L756.918792,508.514874 L756.918792,479.264874 L784.068792,479.264874 L784.068792,464.264874 L740.418792,464.264874 L740.418792,569.264874 L756.918792,569.264874 Z M845.018792,569.264874 L845.018792,554.264874 L816.518792,554.264874 L816.518792,522.014874 L839.168792,522.014874 L839.168792,507.014874 L816.518792,507.014874 L816.518792,479.264874 L845.018792,479.264874 L845.018792,464.264874 L800.018792,464.264874 L800.018792,569.264874 L845.018792,569.264874 Z" id="IAMSAFE" fill="#033047" fill-rule="nonzero"></path>
            </g>
        </g>
    </g>
</svg>